<svg width="88" height="28" viewBox="0 0 88 28" fill="none" xmlns="http://www.w3.org/2000/svg">
<path fill-rule="evenodd" clip-rule="evenodd" d="M46.6233 15.3426L46.6306 11.8344C48.8105 11.8344 49.611 11.7246 49.9914 14.4215H50.2227V11.4212L44.2813 11.4225V11.8344H45.3114V19.5546H44.1763V19.9609H50.2979V16.8067H49.9914C49.6867 19.1923 49.0863 19.5559 47.4044 19.5559H46.6237V15.8052H47.0754C47.8297 15.825 48.2607 16.2664 48.4145 17.5774H48.6934L48.6916 13.6979C48.6847 13.7048 48.4176 13.6979 48.4176 13.6979C48.4176 13.7191 48.3631 15.3651 47.0434 15.3426H46.6233ZM44.197 15.497H40.8457V15.8808H41.9929V18.6568C41.7997 19.3605 40.7701 19.6553 40.4636 19.6553C38.3213 19.6553 38.4739 16.4998 38.4739 15.6521C38.4739 14.8806 38.397 11.6473 40.4636 11.6473C41.916 11.6473 42.6811 13.1074 42.9893 14.4206H43.2227C43.2227 13.8803 43.2301 11.3088 43.2244 11.3144C43.2301 11.295 42.2281 12.0406 42.2238 12.0298C42.2449 12.0242 41.7664 11.3382 40.4636 11.3382C37.9366 11.3382 37.0103 13.8803 37.0185 15.6521C37.0298 17.2757 37.7728 20.0391 40.4636 20.0391C41.3104 20.0391 41.9048 19.606 42.2238 19.1124C42.2281 19.1024 43.2901 19.9587 43.2927 19.9613V15.8808H44.197V15.497ZM73.4755 16.8815L74.6988 13.19L76.0012 16.8815H73.4755ZM68.7306 15.4088H67.3552V11.8297H69.1128C70.1459 11.9866 70.1873 13.19 70.1873 13.5708C70.1873 14.4989 69.8039 15.4088 68.7306 15.4088ZM83.3569 16.8067C83.0522 19.1932 82.4535 19.5502 80.7699 19.5502H80.6661V11.831H81.7368V11.4147H78.2178V11.831H79.2881V19.5498H78.4387L75.3113 11.1835H74.8527C74.8622 11.1791 72.2527 18.7752 72.2471 18.7964C72.2527 18.7752 72.0512 19.4482 71.6216 19.5329C71.2256 19.5524 71.2563 19.3436 71.2563 19.2706V17.8061C71.2563 17.424 71.2261 16.5525 70.831 16.1505C70.3858 15.7001 69.6306 15.6677 69.6475 15.6508C69.6475 15.6508 71.5697 15.2501 71.5697 13.4066C71.5697 12.1158 70.6784 11.4726 69.1897 11.4177H64.9639V11.8336H66.0446V19.5524H64.9639V19.9617H68.4315V19.5524H67.3483V15.8397H68.7912C71.2913 16.0472 68.3615 19.9674 71.6397 19.9617H73.7064V19.5498C73.5918 19.5498 72.8332 19.5723 72.7874 19.0393C72.7537 18.6568 73.2853 17.2744 73.2853 17.2744H76.098C76.0963 17.2688 76.9738 19.5524 76.9807 19.5524H76.0012V19.9617H83.6634V16.8063L83.3569 16.8067ZM60.7966 11.8301C62.9777 11.8301 63.7826 11.7242 64.1617 14.4211H64.3925V11.4212H55.7309V11.8301H55.9574C56.2639 11.8301 56.9871 11.8539 57.032 12.4971H57.0307V17.4205L52.977 11.4208H50.7716V11.8301H51.1386C51.5735 11.8301 52.1838 11.8496 52.2106 12.4971V18.8055C52.2106 19.4206 51.2951 19.6561 50.9147 19.6561H50.9091V19.9622H53.8951V19.6561C53.513 19.6561 52.5923 19.4206 52.5923 18.8055L52.6023 13.2531C54.2068 15.5622 57.2348 19.9678 57.2629 19.9617H57.4141V12.4975C57.4561 11.8543 58.181 11.8306 58.4861 11.8306H59.4803V19.5554H58.3474V19.9617H64.469V16.8063H64.1612C63.8574 19.1928 63.2574 19.5567 61.5742 19.5567H60.7961V15.8047H61.2465C62.0021 15.8242 62.4305 16.2672 62.5844 17.5761H62.8627L62.8614 13.697C62.8558 13.7044 62.587 13.697 62.587 13.697C62.587 13.7187 62.5338 15.3647 61.2128 15.3418H60.7961V11.8297L60.7966 11.8301ZM87.5139 11.8314V11.4152H84.0576V11.8314H85.1452L85.1478 19.5459H84.0576V19.9622H87.5139V19.5459H86.4281V11.8314H87.5139ZM37.0185 9.09134V8.67637H38.1627V0.951065H37.1179V0.598343H43.0368V3.55066H42.8116C42.7122 2.88498 42.5877 2.36973 42.4269 2.00577C42.2756 1.66732 42.0768 1.41617 41.814 1.26532C41.5538 1.10192 41.2304 1.01158 40.8557 1.00164C40.6681 0.987375 40.458 0.987375 40.2215 0.976136C39.9838 0.976136 39.7348 0.962304 39.4729 0.962304V4.49298C39.4729 4.48001 39.5109 4.48001 39.5974 4.48001C39.6466 4.49298 39.6968 4.49298 39.7348 4.49298H39.8718C40.1083 4.49298 40.2955 4.45624 40.4316 4.3659C40.5829 4.30365 40.7057 4.2038 40.8176 4.07974C40.8557 4.0162 40.9041 3.95266 40.9421 3.88912C40.981 3.8286 41.0165 3.75253 41.0545 3.67602C41.0791 3.6142 41.1185 3.55066 41.1297 3.47588C41.1427 3.41364 41.1548 3.35182 41.1803 3.28698C41.1911 3.22474 41.2054 3.17244 41.2054 3.12446C41.2179 3.07388 41.2179 3.0246 41.2304 2.98613C41.2304 2.93556 41.2434 2.91006 41.2434 2.89752V2.84651H41.517V6.71738H41.2179C41.1911 6.55226 41.1803 6.40269 41.1423 6.26437C41.1185 6.13902 41.0791 6.01193 41.0541 5.88831C40.9676 5.6497 40.8807 5.47334 40.78 5.34799C40.6676 5.1967 40.5323 5.09641 40.3936 5.04714C40.2579 4.98359 40.0971 4.95679 39.8969 4.95679H39.4733V8.6768H40.6063V9.09177H37.0185V9.09134ZM57.7046 3.73956C57.6938 3.63927 57.6938 3.51262 57.6683 3.36306C57.6558 3.27531 57.6558 3.19794 57.6432 3.11192C57.6303 3.0246 57.6303 2.93556 57.6182 2.84651C57.5927 2.67188 57.5551 2.48299 57.5049 2.28371C57.4556 2.09352 57.3925 1.91975 57.2931 1.7421C57.2179 1.60377 57.1185 1.47842 56.994 1.3643C56.9309 1.31459 56.8946 1.27785 56.8444 1.22728C56.7969 1.18924 56.7338 1.13867 56.6962 1.11576C56.6456 1.07512 56.5838 1.05221 56.5211 1.01158C56.4593 0.987375 56.3586 0.949336 56.2985 0.949336H55.4997C55.5122 1.67985 55.5122 2.3585 55.5122 3.0004V8.68934H56.5838V9.09134H53.0566V8.68934H54.1299V0.949336C54.1299 0.949336 53.2943 0.938098 53.0691 0.987375C53.0077 1.01158 52.9584 1.03708 52.8452 1.10192C52.7963 1.1257 52.7458 1.16547 52.6831 1.20177C52.6325 1.24025 52.5707 1.27828 52.5093 1.32713C52.3974 1.42785 52.2979 1.56746 52.2085 1.71703C52.1609 1.80434 52.1233 1.89295 52.087 1.982C52.049 2.06845 52.0239 2.1696 51.9971 2.25864C51.9482 2.45748 51.9106 2.64768 51.8856 2.82404C51.8743 2.91049 51.8601 3.0004 51.8601 3.08642C51.8475 3.1599 51.8363 3.33886 51.8363 3.33886L51.8238 3.53769V3.69028H51.5622V0.598343H57.9424L57.954 3.73956H57.7046ZM71.1936 3.92845C71.2555 3.84071 71.3181 3.73913 71.3562 3.65181C71.3812 3.55023 71.4175 3.44994 71.4426 3.33886C71.4919 3.12446 71.517 2.88455 71.517 2.66021C71.517 2.60964 71.517 2.54739 71.5057 2.47131C71.5057 2.40777 71.4919 2.32002 71.4919 2.23271C71.4681 2.03128 71.4288 1.85492 71.3687 1.67985C71.3056 1.49095 71.2191 1.35263 71.0692 1.19054C71.019 1.12699 70.9084 1.05221 70.8327 1.02671C70.7696 0.987375 70.6706 0.950633 70.4467 0.950633H68.6766V4.50508H70.059C70.346 4.50508 70.5712 4.45581 70.7445 4.35596C70.9321 4.26691 71.0791 4.12989 71.1941 3.92802M73.3428 8.99105C73.2533 9.02779 73.1539 9.05287 73.0562 9.06583C72.93 9.09134 72.8055 9.11641 72.681 9.11641C72.3439 9.11641 72.0837 9.05287 71.9216 8.95301C71.7465 8.82766 71.6095 8.68934 71.5351 8.50001C71.4595 8.29987 71.4106 8.08504 71.3981 7.86113C71.3981 7.74529 71.3851 7.61993 71.3851 7.49587V7.13191C71.3981 6.86651 71.3981 6.61537 71.3851 6.37719C71.3851 6.13859 71.3475 5.91295 71.2736 5.71281C71.2118 5.52392 71.086 5.36139 70.9235 5.20794C70.7614 5.08345 70.5249 5.0091 70.2146 4.96933H68.7436V8.68934H69.8657L69.877 9.09134H66.3623V8.68934H67.4983V1.02671H66.3623V0.599208H70.6114C70.812 0.599208 70.9866 0.599208 71.1474 0.612176C71.3099 0.63595 71.4737 0.66275 71.6233 0.712027C71.9103 0.786808 72.158 0.901356 72.3581 1.06475C72.5578 1.20177 72.7078 1.40321 72.8185 1.65435C72.93 1.91975 72.9806 2.21888 72.9806 2.57117C72.9806 3.03671 72.8812 3.41364 72.6685 3.68985C72.4697 3.97773 72.2449 4.2172 72.008 4.37973C71.7214 4.57987 71.4106 4.71948 71.0748 4.80723H71.086C71.1111 4.8202 71.1348 4.8202 71.1742 4.83274C71.223 4.83274 71.2606 4.84527 71.3099 4.85781C71.3618 4.85781 71.4232 4.87077 71.4737 4.89585C71.5982 4.92005 71.7214 4.96933 71.8597 5.04714C71.9955 5.09641 72.1325 5.18373 72.2445 5.29784C72.3313 5.39813 72.4195 5.52392 72.4822 5.67175C72.5328 5.8131 72.5816 5.96136 72.6071 6.12605C72.621 6.21337 72.6309 6.29117 72.6309 6.36595C72.6447 6.44073 72.6447 6.51551 72.656 6.59159C72.656 6.65384 72.6689 6.71867 72.6689 6.79173V8.48574C72.6689 8.51298 72.681 8.53805 72.6936 8.57479C72.7191 8.60159 72.7554 8.62579 72.806 8.65259C72.831 8.66383 72.9062 8.67637 73.0294 8.67637L73.3177 8.57479L73.5793 8.84019C73.5291 8.90201 73.4409 8.95258 73.3428 8.99105ZM79.9996 9.09134H73.8823V8.68934H75.0157V0.951065H73.9817V0.598343H79.9114V3.55066H79.675C79.6248 3.21047 79.5755 2.91006 79.5129 2.65891C79.4372 2.40821 79.3771 2.18343 79.3002 2.00621C79.1532 1.66732 78.9393 1.41617 78.6777 1.25278C78.4158 1.08896 78.0925 1.01158 77.7065 1.00164C77.5206 0.987375 77.3075 0.987375 77.084 0.976136C76.8471 0.976136 76.5982 0.962304 76.3241 0.962304V4.48001H76.7477C76.9595 4.48001 77.1324 4.4437 77.3075 4.3659C77.47 4.27988 77.5945 4.1783 77.6814 4.07974C77.7315 4.00323 77.7691 3.94142 77.8171 3.87788C77.856 3.81563 77.8941 3.75253 77.9178 3.67602C77.9429 3.59994 77.968 3.53769 77.993 3.47588C78.0186 3.41364 78.0311 3.33886 78.0436 3.27531C78.0687 3.21047 78.0812 3.1344 78.0812 3.07388C78.0925 3.01034 78.105 2.92259 78.105 2.83528H78.3795V6.71738H78.0812C78.0687 6.55226 78.0436 6.40269 78.0185 6.26437C77.993 6.13902 77.9554 6.0007 77.9178 5.88831C77.8435 5.6497 77.7441 5.46037 77.6559 5.33502C77.5439 5.1967 77.4207 5.09641 77.2841 5.0333C77.1216 4.96976 76.9591 4.94556 76.7858 4.94556H76.3241V8.68934H77.0961C77.5314 8.68934 77.8941 8.66383 78.1681 8.60072C78.4664 8.53718 78.7167 8.41312 78.9012 8.22379C79.1027 8.02236 79.2639 7.73318 79.3884 7.38305C79.4511 7.19416 79.5129 6.99229 79.5505 6.75412C79.601 6.51551 79.6386 6.2393 79.675 5.94882H79.9996V9.09134ZM48.6454 1.02714V0.598343H51.1136V1.02714H50.0753V5.6765C50.0753 6.62055 50.0251 7.23825 49.9383 7.53996C49.6387 8.61067 48.8399 9.13932 47.5509 9.13932C46.9016 9.13932 46.3142 9.01396 45.8145 8.76152C45.2266 8.47234 44.8519 8.01977 44.7023 7.42715C44.6159 7.12543 44.5899 6.54404 44.5899 5.6765V1.01158H43.5421V0.598343H46.9648V1.01158H45.9144V5.6765C45.9144 6.55701 45.9278 7.13667 45.9645 7.3904C46.0021 7.65278 46.1028 7.89269 46.2636 8.13389C46.5883 8.61067 47.1143 8.72781 47.8392 8.72781C48.6635 8.72781 49.1252 8.41183 49.401 7.83044C49.5129 7.59097 49.5756 7.33983 49.6123 7.08696C49.6374 6.83495 49.6499 6.36768 49.6499 5.6765V1.02714H48.6454ZM63.49 1.02714V0.598343H65.9581V1.02714H64.9199V5.6765C64.9199 6.62055 64.8706 7.23825 64.7841 7.53996C64.4833 8.61067 63.6827 9.13932 62.3955 9.13932C61.7462 9.13932 61.1584 9.01396 60.6604 8.76152C60.0725 8.47234 59.6978 8.01977 59.5465 7.42715C59.46 7.12543 59.4345 6.54404 59.4345 5.6765V1.01158H58.3841V0.598343H61.8093V1.01158H60.7598V5.6765C60.7598 6.55701 60.7724 7.13667 60.8087 7.3904C60.8467 7.65278 60.947 7.89269 61.1095 8.13389C61.4341 8.61067 61.9589 8.72781 62.6838 8.72781C63.5077 8.72781 63.968 8.41183 64.2451 7.83044C64.3588 7.59097 64.4202 7.33983 64.4569 7.08696C64.4816 6.83495 64.4958 6.36768 64.4958 5.6765V1.02714H63.4895H63.49ZM2.03723 27.8919H1.3655V22.9988H0V22.3979H3.41008V22.9988H2.03723V27.8919ZM4.56118 25.1454C4.56118 26.4132 4.68264 27.4458 5.61329 27.4458C6.54524 27.4458 6.66714 26.4132 6.66714 25.1454C6.66714 23.8771 6.54524 22.8458 5.61329 22.8458C4.68264 22.8458 4.56118 23.8771 4.56118 25.1454ZM7.36955 25.1454C7.36955 26.5286 7.11755 27.9987 5.61329 27.9987C4.11206 27.9987 3.85833 26.529 3.85833 25.1454C3.85833 23.7613 4.11206 22.2916 5.61329 22.2916C7.11755 22.2916 7.36955 23.7613 7.36955 25.1454ZM9.85547 27.8919H9.18374V22.9988H7.81824V22.3979H11.2279V22.9988H9.85547V27.8919ZM12.076 25.8301H13.5409L12.8467 23.1764H12.8316L12.076 25.8301ZM12.4032 22.3979H13.3044L14.7698 27.8919H14.0669L13.6779 26.3842H11.9389L11.5344 27.8924H10.8319L12.4032 22.3979ZM15.1722 22.3984H15.844V27.292H18.0575V27.8928H15.1722V22.3984ZM20.4358 27.8932H21.1076V22.3988H20.4358V27.8932ZM22.014 22.3984H22.8841L24.6849 26.9842H24.7005V22.3984H25.3722V27.8928H24.4485L22.7009 23.4453H22.6857V27.8928H22.014V22.3984ZM28.5899 23.8218C28.5899 23.246 28.3842 22.8466 27.7436 22.8466C27.1782 22.8466 26.8423 23.1527 26.8423 23.7371C26.8423 25.2846 29.4142 24.3604 29.4142 26.3691C29.4142 27.6386 28.4905 27.9996 27.7211 27.9996C26.4459 27.9996 26.0729 27.3382 26.0729 26.1685H26.7429C26.7429 26.7854 26.7818 27.4454 27.7656 27.4454C28.3003 27.4454 28.7131 27.0616 28.7131 26.4763C28.7131 24.9219 26.1412 25.8232 26.1412 23.8075C26.1412 23.2996 26.3539 22.2912 27.7362 22.2912C28.7736 22.2912 29.2461 22.8142 29.2617 23.8214H28.5895L28.5899 23.8218ZM30.054 22.3984H30.7257V26.2606C30.7257 27.0689 30.9859 27.4454 31.6494 27.4454C32.3657 27.4454 32.5797 27.0296 32.5797 26.261V22.3984H33.2514V26.2606C33.2514 27.3144 32.7167 28 31.6494 28C30.5563 28 30.0544 27.3918 30.0544 26.2606L30.054 22.3984ZM34.7686 24.8916H35.433C35.8289 24.8916 36.5538 24.8916 36.5538 23.8296C36.5538 23.291 36.1955 22.9521 35.57 22.9521H34.7686V24.8916ZM34.0986 22.3975H35.8601C36.7146 22.3975 37.2563 22.9071 37.2563 23.7764C37.2563 24.3773 37.0505 25.0075 36.4168 25.1596V25.1769C36.8897 25.2288 37.1568 25.6222 37.188 26.0924L37.2338 27.0304C37.2632 27.6382 37.3626 27.7921 37.5234 27.8924H36.7151C36.6001 27.7765 36.5465 27.3689 36.5314 27.0979L36.4868 26.2463C36.4324 25.4912 36.0209 25.4462 35.6764 25.4462H34.7686V27.8924H34.0986V22.3979V22.3975ZM38.8184 25.8301H40.2838L39.5896 23.1764H39.5757L38.8184 25.8301ZM39.1474 22.3979H40.0469L41.5123 27.8919H40.8094L40.4217 26.3842H38.681L38.2768 27.8924H37.5761L39.1474 22.3979ZM41.9164 22.3984H42.7866L44.586 26.9842H44.6016V22.3984H45.2733V27.8928H44.3496L42.602 23.4453H42.5864V27.8928H41.9164V22.3984ZM49.5138 26.0077C49.4533 27.0443 49.0491 27.9996 47.8582 27.9996C46.3095 27.9996 46.1037 26.5299 46.1037 25.1458C46.1037 23.7604 46.3557 22.2907 47.8587 22.2907C48.9722 22.2907 49.4381 22.9214 49.4688 23.999H48.7664C48.7513 23.3766 48.5524 22.8466 47.8587 22.8466C46.928 22.8466 46.8048 23.8763 46.8048 25.1458C46.8048 26.414 46.928 27.4463 47.8582 27.4463C48.6752 27.4463 48.7889 26.6764 48.8127 26.0077H49.5138ZM50.1613 22.3984H52.9766V22.9992H50.833V24.7218H52.8547V25.3226H50.833V27.292H53.0678V27.8928H50.1613V22.3984ZM57.8818 23.8218C57.8818 23.246 57.6761 22.8466 57.0355 22.8466C56.4701 22.8466 56.1342 23.1527 56.1342 23.7371C56.1342 25.2846 58.7062 24.3604 58.7062 26.3691C58.7062 27.6386 57.7824 27.9996 57.0117 27.9996C55.7366 27.9996 55.3631 27.3382 55.3631 26.1685H56.0348C56.0348 26.7854 56.0737 27.4454 57.0575 27.4454C57.5909 27.4454 58.0037 27.0616 58.0037 26.4763C58.0037 24.9219 55.4318 25.8232 55.4318 23.8075C55.4318 23.2996 55.6458 22.2912 57.0268 22.2912C58.0651 22.2912 58.538 22.8142 58.5518 23.8214L57.8818 23.8218ZM60.0328 25.1454C60.0328 26.4132 60.1542 27.4458 61.0849 27.4458C62.0155 27.4458 62.1383 26.4132 62.1383 25.1454C62.1383 23.8771 62.0155 22.8458 61.0849 22.8458C60.1542 22.8458 60.0328 23.8771 60.0328 25.1454ZM62.8394 25.1454C62.8394 26.5286 62.5887 27.9987 61.0844 27.9987C59.5819 27.9987 59.3303 26.529 59.3303 25.1454C59.3303 23.7613 59.5819 22.2916 61.0849 22.2916C62.5891 22.2916 62.8398 23.7613 62.8398 25.1454M63.6702 22.3984H64.3415V27.292H66.5551V27.8928H63.6702V22.3984ZM67.0185 22.3984H67.6902V26.2606C67.6902 27.0689 67.9504 27.4454 68.6152 27.4454C69.3302 27.4454 69.5446 27.0296 69.5446 26.261V22.3984H70.2159V26.2606C70.2159 27.3144 69.6812 28 68.6152 28C67.5225 28 67.0185 27.3918 67.0185 26.2606V22.3984ZM72.7178 27.8919H72.0465V22.9988H70.6805V22.3979H74.0906V22.9988H72.7178V27.8919ZM74.6171 27.8932H75.2888V22.3988H74.6171V27.8932ZM76.6686 25.1454C76.6686 26.4132 76.7901 27.4458 77.722 27.4458C78.6527 27.4458 78.7741 26.4132 78.7741 25.1454C78.7741 23.8771 78.6527 22.8458 77.722 22.8458C76.7901 22.8458 76.6686 23.8771 76.6686 25.1454ZM79.4766 25.1454C79.4766 26.5286 79.225 27.9987 77.722 27.9987C76.2191 27.9987 75.9671 26.529 75.9671 25.1454C75.9671 23.7613 76.2191 22.2916 77.722 22.2916C79.225 22.2916 79.477 23.7613 79.477 25.1454M80.1548 22.3984H81.0253L82.8248 26.9842H82.84V22.3984H83.5117V27.8928H82.5884L80.8408 23.4453H80.8252V27.8928H80.1548V22.3984ZM86.7311 23.8218C86.7311 23.246 86.5254 22.8466 85.8843 22.8466C85.3189 22.8466 84.9831 23.1527 84.9831 23.7371C84.9831 25.2846 87.555 24.3604 87.555 26.3691C87.555 27.6386 86.6317 27.9996 85.8606 27.9996C84.5858 27.9996 84.2124 27.3382 84.2124 26.1685H84.8841C84.8841 26.7854 84.9217 27.4454 85.9055 27.4454C86.4398 27.4454 86.8526 27.0616 86.8526 26.4763C86.8526 24.9219 84.2807 25.8232 84.2807 23.8075C84.2807 23.2996 84.4951 22.2912 85.8757 22.2912C86.9144 22.2912 87.3873 22.8142 87.4016 23.8214L86.7311 23.8218ZM25.3757 16.9956C25.4427 16.8192 25.5771 16.7081 25.7591 16.6727L27.6143 16.2551L27.4462 14.5879L27.441 14.5512C27.396 14.3325 27.2573 13.6681 26.3954 13.5959C23.0808 13.3253 22.3127 12.8317 21.5065 12.3069L21.5022 12.2983L21.4979 12.3013L21.4464 12.2658C20.5845 11.7061 19.7308 11.7004 19.6457 11.703C18.7068 11.703 17.5203 12.0782 17.4221 12.1094C17.1355 12.1958 16.8667 12.2801 16.6078 12.3644C15.5712 12.7015 14.6743 12.9925 13.167 12.9475L12.8916 12.9389L12.8216 13.2069C12.7672 13.4143 12.3461 15.0915 12.7529 16.1704C12.3876 16.4613 12.3876 16.7942 12.3907 16.8404C12.4045 17.2087 12.3176 17.3003 12.2899 17.3289C12.1162 17.5104 11.5382 17.5363 11.0528 17.5363H10.8695L10.7658 17.6799C10.4654 18.0948 9.81743 18.1934 9.4016 18.0862C9.22134 17.5277 9.21573 17.1002 9.39209 16.846C9.59914 16.5443 10.04 16.5106 10.219 16.5106H10.3227C10.7645 16.5106 11.1215 16.1479 11.1215 15.7023V12.6964C11.2573 12.4889 11.3636 12.2477 11.4574 11.9754C12.1849 11.8586 12.7416 11.2375 12.7416 10.4884C12.7416 10.2022 12.6578 9.923 12.5065 9.68612C13.1795 9.36193 13.7536 8.69452 13.7536 7.81963C13.7536 6.94648 13.3183 6.5462 12.9029 6.28209C13.02 5.94796 13.2132 5.35706 13.3438 4.76314L13.9256 2.66237C14.1858 1.83892 14.8671 1.30552 15.659 1.30552H25.9112C25.4777 1.92062 24.8608 2.21412 24.0071 2.21412H17.8029L17.4796 2.91222H23.0385C22.6019 3.61334 21.9626 3.94185 21.0544 3.94185H17.0236L16.699 4.64168H20.2962C19.8609 5.3173 19.2272 5.63457 18.3359 5.63457H16.1379L15.8146 6.3331H18.1176C18.1401 6.36422 18.1976 6.4684 18.1976 6.75196C18.1976 7.20324 17.8224 7.5672 17.3607 7.5672C17.2038 7.5672 17.0681 7.53218 16.8317 7.43449C16.7297 7.38954 16.6276 7.34718 16.5265 7.30352L15.9905 7.78765C16.0899 7.83087 16.1911 7.87323 16.2918 7.9156C16.7534 8.11876 17.0124 8.22336 17.3607 8.22336C17.7861 8.22336 18.1682 8.04527 18.441 7.76344C18.8343 7.79154 19.4719 7.84384 20.0866 7.89312C20.8253 7.95536 21.5208 8.01156 21.8804 8.03144C22.0607 8.04138 22.2284 8.0496 22.3896 8.05694C22.6961 8.07207 22.9758 8.08634 23.2554 8.10622C24.6551 10.3972 25.3713 10.6989 28.0829 11.0261C28.2761 11.3788 28.4525 11.751 28.6219 12.1262V16.6135C28.637 16.8179 28.637 16.8871 28.6089 16.9238C28.5156 17.0479 28.0972 17.2243 27.9502 17.2848L25.6666 18.1523C25.364 17.7391 25.2564 17.3077 25.3757 16.9956ZM24.8816 18.2059H20.3662L22.3015 16.1479C22.6918 15.7403 22.8176 15.2523 22.6524 14.7712C22.5586 14.4946 22.304 13.9616 22.0369 13.4169C22.805 13.7766 23.9708 14.1012 26.3379 14.2931C26.6249 14.3169 26.701 14.4142 26.7567 14.6752L26.8605 15.7079L25.6216 15.9858C25.2075 16.0688 24.8816 16.3442 24.7277 16.7419C24.5583 17.1819 24.6153 17.6997 24.8816 18.2059ZM16.7379 18.2059C16.6121 17.7123 16.6622 17.3172 16.8861 17.0591C17.1005 16.811 17.4308 16.7349 17.6629 16.7687L18.9839 17.0168L19.0159 17.0224H19.1991L20.1328 16.0083L20.141 15.9997C20.3005 15.8121 20.786 15.2454 20.2923 14.5231L19.044 12.4508C19.251 12.4227 19.4581 12.4029 19.6483 12.4029L19.6582 12.4016C19.6638 12.4029 20.2893 12.3929 20.958 12.7863C21.0488 12.9808 21.1763 13.2406 21.3163 13.5285C21.5779 14.0632 21.9042 14.7288 21.9937 14.9968C22.0231 15.0833 22.1113 15.3383 21.7992 15.6655L19.4088 18.2059H16.7379ZM16.3631 16.5979C16.1111 16.8884 15.866 17.395 16.0259 18.2059H11.7734C12.2299 18.161 12.5627 18.0538 12.7909 17.8139C13.0706 17.5221 13.0957 17.1227 13.0862 16.8378C13.0944 16.8123 13.1406 16.7168 13.349 16.6217L13.7155 16.4527L13.4959 16.1125C13.132 15.5497 13.2915 14.3212 13.4315 13.6512H13.464C14.9064 13.6512 15.8383 13.3495 16.8222 13.0305C17.0781 12.9475 17.3426 12.8611 17.6223 12.7807L17.6309 12.7763C17.6361 12.775 17.9248 12.6821 18.3147 12.5918L19.7001 14.894L19.7144 14.9121C19.8527 15.111 19.8696 15.2437 19.6176 15.5389L18.9238 16.2945L17.7848 16.0801L17.7736 16.0788C17.26 15.9997 16.7059 16.2028 16.3631 16.5979ZM8.81978 16.4458C8.52455 16.8746 8.48824 17.4655 8.71171 18.2059H7.99287V12.5537C8.25006 12.5127 8.52714 12.4396 8.78477 12.3212C8.77093 12.5675 8.73722 12.7625 8.69097 13.0236C8.68102 13.0841 8.66978 13.1463 8.65898 13.2138L8.58895 13.6214H9.00003C9.616 13.6214 10.0746 13.5259 10.426 13.3409V15.7023C10.426 15.7628 10.3798 15.8108 10.3223 15.8108H10.2186C9.60735 15.8108 9.09815 16.042 8.81978 16.4458ZM7.29737 17.5956L4.02432 16.7345L0.74867 17.5947V11.6901L4.02432 10.8351L7.29737 11.6901V17.5947V17.5956ZM1.17012 18.2055L4.02432 17.4577L6.87721 18.2055H1.17012ZM2.31171 9.51495C2.44744 9.30617 2.76126 9.12289 3.15116 9.19335L3.44941 9.24392L3.54192 8.95647C3.56699 8.87866 3.59897 8.82247 3.64652 8.77709C3.73081 8.69798 3.85401 8.66167 4.01178 8.66556C4.4315 8.67853 4.95497 8.97333 5.38031 9.43325C5.53592 9.60097 5.67122 9.79548 5.79441 9.99043C5.81818 10.0311 5.84498 10.0765 5.87135 10.1158C5.90507 10.1694 5.93316 10.2143 5.93878 10.226C5.95564 10.2528 6.16529 10.5718 6.15016 10.5913C6.29539 10.3881 6.43804 10.1849 6.58241 9.98049C6.58674 9.97487 6.57939 9.95628 6.56815 9.92948C6.53487 9.85903 6.45922 9.73929 6.41427 9.66883C6.40173 9.65024 6.39222 9.63209 6.38098 9.61653C6.37925 9.61523 6.37796 9.6135 6.37796 9.61221C6.37363 9.60356 6.35418 9.57287 6.32911 9.5331C6.28156 9.45703 6.21283 9.34723 6.18214 9.28758L7.08902 7.82828C7.31379 7.87583 7.50572 7.88318 7.59692 7.88318H7.6207C8.89802 7.88318 10.2186 7.14142 10.2186 5.89695V5.86626C10.2034 5.5291 10.1408 5.20577 10.0902 4.94642C10.0565 4.77568 10.0258 4.61488 10.0258 4.53318C10.0258 4.39486 10.2147 4.2453 10.4874 4.2453H10.9002L10.7144 3.16638C11.2949 2.73456 11.6532 2.03387 11.6338 1.36214C12.2588 1.84627 12.7014 2.68485 12.7823 3.57789C12.8061 3.83725 12.7542 4.20164 12.6716 4.58246L12.6271 4.74196L12.6357 4.74326C12.487 5.36657 12.2688 6.00848 12.1525 6.31192L12.0461 6.59289L12.3068 6.74072C12.7723 7.00742 13.0594 7.20194 13.0594 7.81963C13.0594 8.5294 12.4257 9.07361 11.8145 9.18946L10.9759 9.34766L11.6839 9.82444C11.9104 9.9753 12.0461 10.2247 12.0461 10.4888C12.0461 10.934 11.6701 11.2971 11.208 11.2971H10.9409L10.8669 11.5453C10.6067 12.3968 10.324 12.8148 9.41716 12.9051C9.45909 12.6441 9.48718 12.3959 9.48718 12.0415C9.48718 11.9598 9.48027 11.7272 9.47724 11.6525L9.43661 10.8571L8.88116 11.4251C8.69356 11.617 8.35942 11.7709 7.99287 11.8444V11.1484L4.02432 10.1106L2.61083 10.4815C2.29615 10.1629 2.23304 9.63814 2.31128 9.51538L2.31171 9.51495ZM6.59754 6.94604C6.60748 6.89849 6.64682 6.85873 6.68745 6.86002L7.28613 6.87991C8.01492 6.8544 8.75667 6.55269 8.83923 5.7863C8.83923 5.26888 8.47527 4.76401 7.96045 4.76401C7.6851 4.76401 7.37561 4.95593 7.02721 5.18848C6.802 5.33977 6.62305 5.45951 6.48559 5.45951C6.39481 5.45951 6.32047 5.39899 6.32047 5.34799C6.32047 5.33934 6.3222 5.3281 6.32479 5.32248L6.7069 4.80637L6.37666 4.58203C6.30663 4.53707 6.19598 4.44803 6.18474 4.38449C6.17782 4.35207 6.22278 4.29847 6.23661 4.28031C6.37234 4.12038 6.53054 3.92327 6.69005 3.68207C6.78644 3.54504 6.84263 3.46896 7.00646 3.46896C7.16726 3.46896 7.30039 3.60037 7.30039 3.75944C7.30039 3.86534 7.41494 3.95007 7.55888 3.95007C7.70153 3.95007 7.76637 3.84849 7.85541 3.75987C7.85541 3.75987 8.1956 3.44649 8.01535 3.29563C7.80786 3.12618 6.98398 3.47329 7.21351 2.71035L7.27057 2.60142C7.36048 2.48299 7.7534 2.18948 8.56777 2.18948C8.72338 2.18948 8.88548 2.20072 9.0506 2.22061L9.17509 2.23617L10.9033 1.16114C10.9184 1.19788 10.924 1.22339 10.924 1.22339L10.9257 1.23463C11.0152 1.76198 10.685 2.39005 10.1589 2.69566L9.9471 2.81755L10.0833 3.60426C9.63977 3.74129 9.33027 4.09963 9.33027 4.53275C9.33027 4.68058 9.36399 4.85694 9.40722 5.07999C9.45649 5.3281 9.50966 5.60734 9.52349 5.89263C9.52349 6.71046 8.40395 7.25208 7.45557 7.21966H7.4318C7.39246 7.21836 6.78947 7.17038 6.64077 7.05324C6.6131 7.03206 6.59063 6.98278 6.59754 6.94604ZM8.03048 1.48577C8.13984 1.34485 8.31879 1.18794 8.52844 1.04703C8.69658 0.935504 8.91185 0.838246 9.12322 0.776001C9.45909 0.680472 9.84379 0.673124 10.2428 0.749201L9.01559 1.513C8.863 1.49744 8.71301 1.49052 8.56777 1.49052C8.35942 1.49052 8.16923 1.50738 7.99287 1.53548C8.0054 1.51862 8.01794 1.50133 8.03048 1.48577ZM26.723 1.30508H31.3473C30.915 1.92148 30.2969 2.21369 29.4432 2.21369H26.0288C26.3003 1.97249 26.5328 1.66904 26.723 1.30508ZM26.4909 3.94185H23.0752C23.3786 3.67515 23.6293 3.33064 23.8308 2.91178H28.4749C28.0384 3.61291 27.3986 3.94142 26.4909 3.94142V3.94185ZM23.7733 5.63414H20.3593C20.6515 5.37608 20.8966 5.04195 21.0924 4.64125H25.7323C25.297 5.31686 24.6659 5.63414 23.7733 5.63414ZM24.5583 8.26227C25.6398 8.44122 26.5255 8.93097 27.1907 9.71941C27.3334 9.89015 27.4699 10.0678 27.6057 10.2623C25.7859 10.0211 25.1518 9.75312 24.1347 8.19743C24.27 8.21472 24.4113 8.23547 24.5583 8.26227ZM31.8189 15.8103C31.8863 15.9175 31.9421 16.0221 31.9983 16.1194C32.0653 16.2404 32.1323 16.3576 32.2092 16.4803C31.6819 16.4466 31.2842 16.1518 30.915 15.5972C31.2552 15.4775 31.668 15.5622 31.8189 15.8103ZM27.4924 18.2055L28.2018 17.9362L28.2117 17.9332C29.2189 17.5117 29.3632 17.2506 29.3157 16.5737V13.844C30.0825 15.8065 30.8061 17.1854 32.2935 17.1854C32.4949 17.1854 32.7102 17.1603 32.9428 17.108L33.522 16.9757L33.123 16.5313C32.8684 16.2491 32.7452 16.0278 32.6026 15.7749C32.5438 15.672 32.485 15.5622 32.4111 15.4421C32.0627 14.8736 31.2353 14.6817 30.5666 14.9839C30.2632 14.3757 29.9567 13.5834 29.5884 12.6043L29.5076 12.418C29.4445 12.271 29.3801 12.1245 29.3157 11.9762V11.9524H29.3045C29.0767 11.4363 28.8333 10.9155 28.5419 10.4318C28.2774 9.9887 28.009 9.60918 27.7207 9.26683C26.9456 8.34829 25.9199 7.77857 24.6715 7.56979C23.8096 7.42714 23.1984 7.39602 22.4246 7.35798C22.2634 7.35107 22.097 7.34242 21.918 7.33118C21.5679 7.31433 20.8434 7.25511 20.1436 7.19589C19.6725 7.15655 19.1896 7.11678 18.8088 7.08869C18.8339 6.98019 18.8494 6.86824 18.8494 6.75153C18.8494 6.59635 18.8339 6.45802 18.8075 6.33224H23.7733C25.0523 6.33224 25.98 5.76252 26.5298 4.63995C27.8032 4.62871 28.7239 4.04776 29.2668 2.91178H29.4432C30.7681 2.91178 31.7156 2.3023 32.2585 1.09933L32.4833 0.606556H15.6598C14.5554 0.606556 13.6139 1.33188 13.2599 2.45662L13.25 2.49552C12.9647 1.69152 12.4399 1.01028 11.7682 0.608285C10.8358 0.0476477 9.77507 -0.139087 8.93044 0.105138C8.65033 0.187267 8.37196 0.313918 8.14675 0.463479C7.95224 0.593156 7.68078 0.801937 7.48194 1.05437C7.26797 1.33232 7.05963 1.67077 6.90704 1.98373C6.81021 2.06456 6.735 2.14799 6.68313 2.22666L6.4817 2.60748L6.47046 2.62909C6.22969 3.17762 5.93576 3.55974 5.70925 3.82644C5.48232 4.09444 5.46978 4.34688 5.50091 4.5107C5.53289 4.69225 5.63058 4.84052 5.73433 4.95204L5.72741 4.96328C5.66041 5.07999 5.6254 5.21139 5.6254 5.34842C5.6254 5.79537 6.0114 6.13426 6.48559 6.13426C6.83269 6.13426 7.11409 5.97173 7.41192 5.7716C7.53381 5.68947 7.85541 5.4768 7.96088 5.46426C8.09359 5.46426 8.21505 5.58659 8.21505 5.72059C8.21505 6.08758 7.74648 6.28382 7.40932 6.3089L6.72636 6.38368C6.23531 6.43036 6.00146 6.69144 6.00146 6.92702C6.00146 7.1626 6.11385 7.29487 6.19165 7.37398L6.24223 7.42585L6.41729 7.58276L5.6924 8.75936C5.17455 8.27523 4.57026 7.98346 4.03555 7.9679C3.68888 7.95666 3.38933 8.06083 3.16801 8.26962C3.10361 8.33186 3.04785 8.40102 3.00159 8.4784H2.98776C2.41545 8.4784 1.95467 8.78746 1.72989 9.13456C1.4848 9.51235 1.57169 10.1698 1.88378 10.6721L0.0548967 11.1489V19.9635H33.5989V18.2059L27.4924 18.2055Z" fill="#C21B17"/>
<path fill-rule="evenodd" clip-rule="evenodd" d="M6.57201 12.5966L4.38522 12.0252V12.7457L6.57201 13.3202V12.5966ZM1.47656 13.3198L3.66249 12.747V12.0234L1.47656 12.5962V13.3198ZM1.47656 14.773L3.66249 14.2003V13.4767L1.47656 14.0494V14.773ZM6.57201 14.0499L4.38522 13.4771V14.1994L6.57201 14.7735V14.0499ZM6.57201 15.5031L4.38522 14.9291V15.6514L6.57201 16.2267V15.5031ZM1.47656 16.2263L3.66249 15.6522V14.9286L1.47656 15.5027V16.2263Z" fill="#C21B17"/>
</svg>
